<?xml version="1.0" encoding="UTF-8" standalone="no"?>
<svg width="513px" height="513px" viewBox="0 0 513 513" version="1.1" xmlns="http://www.w3.org/2000/svg" xmlns:xlink="http://www.w3.org/1999/xlink">
    <!-- Generator: Sketch 41.2 (35397) - http://www.bohemiancoding.com/sketch -->
    <title>app-icon-flat</title>
    <desc>Created with Sketch.</desc>
    <defs></defs>
    <g id="Page-1" stroke="none" stroke-width="1" fill="none" fill-rule="evenodd">
        <g id="app-icon-flat">
            <path d="M390.5,0.5 C464.5,0.5 512.5,48.5 512.5,122.5 L512.5,390.5 C512.5,464.5 464.5,512.5 390.5,512.5 L122.5,512.5 C48.5,512.5 0.5,464.5 0.5,390.5 L0.5,122.5 C0.5,48.5 48.5,0.5 122.5,0.5 L390.5,0.5 Z" id="Fill-1" fill="#A27A64"></path>
            <polygon id="Fill-5" fill="#FEFEFE" points="364.0312 108.2222 257.1402 188.1012 150.2572 108.2222 150.2572 401.1112 364.0312 401.1112"></polygon>
            <path d="M328.7295,273.3701 L406.0005,273.3701 C402.6595,295.9891 384.7165,309.6441 364.2815,309.6441 C343.2795,309.6441 330.4225,298.4931 328.7295,273.3701 L328.7295,273.3701 Z M216.5005,273.3701 L292.8545,273.3701 C291.1575,298.4931 278.2985,309.6441 257.2885,309.6441 C236.8535,309.6441 219.8445,295.9891 216.5005,273.3701 L216.5005,273.3701 Z M184.7185,250.5001 C184.5865,252.5521 184.5005,254.5131 184.5005,256.6431 L184.5005,258.8751 C184.5005,304.0741 215.5755,334.1981 257.2885,334.1981 C278.1535,334.1981 298.0005,324.5001 310.7855,302.5001 C325.0005,324.5001 343.4245,334.1981 364.2815,334.1981 C405.9935,334.1981 437.0705,304.0741 437.0705,258.8751 L437.0705,256.6431 C437.0705,254.5131 436.9845,252.6071 436.8495,250.5581 L184.7185,250.5001 Z" id="Fill-7" fill="#020302"></path>
        </g>
    </g>
</svg>